#!OML:ASF H:\ManfredETheater\Project 1\Capture day 1\Session 1\subject.ASF
:FULLY-SPECIFIED
:DEGREES
61
root 0.6056 17.1617 32.7018 -175.262 -6.13168 178.154
lowerback 4.72649 -0.821825 -3.80766
upperback -3.01428 -1.32533 1.811
thorax -5.66721 -0.487534 4.15883
lowerneck -19.535 -0.127587 -1.83562
upperneck 26.4126 -0.12293 -1.17455
head 11.9193 -0.746255 -0.221085
rclavicle -8.36759e-015 1.11319e-014
rhumerus -35.0142 -11.1599 -76.9632
rradius 30.7748
rwrist 1.75677
rhand -20.1385 -12.2407
rfingers 7.12502
rthumb 6.20613 -42.1298
lclavicle -8.36759e-015 1.11319e-014
lhumerus -35.7138 5.26873 84.1397
lradius 32.5694
lwrist -14.3949
lhand -8.7921 9.39854
lfingers 7.12502
lthumb 17.1466 38.662
rfemur -30.745 -2.82694 15.1769
rtibia 35.5647
rfoot -5.73228 -5.96709
rtoes 11.8022
lfemur -10.5837 -4.77233 -25.6103
ltibia 31.9784
lfoot -22.5146 -1.03364
ltoes 9.3432
62
root 0.603948 17.1616 32.6996 -175.254 -6.11122 178.169
lowerback 4.72186 -0.823145 -3.80174
upperback -3.01254 -1.32659 1.80819
thorax -5.66274 -0.488585 4.15247
lowerneck -19.5308 -0.128973 -1.8346
upperneck 26.403 -0.125833 -1.17097
head 11.9147 -0.746566 -0.220218
rclavicle -1.68408e-014 1.27222e-014
rhumerus -35.0176 -11.1717 -76.9791
rradius 30.7733
rwrist 1.75999
rhand -20.138 -12.2316
rfingers 7.12502
rthumb 6.20655 -42.1207
lclavicle -1.68408e-014 1.27222e-014
lhumerus -35.7067 5.28426 84.1348
lradius 32.5492
lwrist -14.4153
lhand -8.79393 9.37845
lfingers 7.12502
lthumb 17.1448 38.642
rfemur -30.752 -2.80638 15.1891
rtibia 35.5669
rfoot -5.73816 -5.96709
rtoes 11.8091
lfemur -10.5856 -4.77008 -25.6007
ltibia 31.9815
lfoot -22.5244 -1.01151
ltoes 9.32371
63
root 0.602281 17.1615 32.6974 -175.247 -6.08852 178.187
lowerback 4.72298 -0.82504 -3.79619
upperback -3.01876 -1.32906 1.80867
thorax -5.66979 -0.489827 4.15024
lowerneck -19.5075 -0.127629 -1.83711
upperneck 26.3939 -0.125544 -1.16804
head 11.9065 -0.74647 -0.218525
rclavicle 4.09993e-016 6.36111e-015
rhumerus -35.0363 -11.1727 -76.9912
rradius 30.7717
rwrist 1.76417
rhand -20.1353 -12.2239
rfingers 7.12502
rthumb 6.20919 -42.1129
lclavicle 4.09993e-016 6.36111e-015
lhumerus -35.7241 5.29318 84.1339
lradius 32.5403
lwrist -14.4273
lhand -8.79759 9.36082
lfingers 7.12502
lthumb 17.1413 38.6247
rfemur -30.7596 -2.78556 15.2038
rtibia 35.5695
rfoot -5.74398 -5.96466
rtoes 11.8136
lfemur -10.5875 -4.76854 -25.5894
ltibia 31.985
lfoot -22.5352 -0.988198
ltoes 9.31205
64
root 0.600654 17.1614 32.6951 -175.24 -6.06565 178.201
lowerback 4.7297 -0.82831 -3.79683
upperback -3.03191 -1.33419 1.81109
thorax -5.68696 -0.491806 4.15409
lowerneck -19.4687 -0.123596 -1.84176
upperneck 26.386 -0.121957 -1.16685
head 11.8957 -0.745867 -0.216642
rclavicle -1.50331e-014 1.23246e-014
rhumerus -35.069 -11.1613 -77.0012
rradius 30.7719
rwrist 1.76444
rhand -20.1314 -12.222
rfingers 7.12502
rthumb 6.213 -42.1109
lclavicle -1.50331e-014 1.23246e-014
lhumerus -35.7658 5.29451 84.1369
lradius 32.5461
lwrist -14.4297
lhand -8.80031 9.35023
lfingers 7.12502
lthumb 17.1386 38.6143
rfemur -30.7677 -2.76651 15.2151
rtibia 35.5729
rfoot -5.75018 -5.96043
rtoes 11.8172
lfemur -10.5888 -4.76791 -25.5818
ltibia 31.9886
lfoot -22.548 -0.96323
ltoes 9.30137
65
root 0.599106 17.1611 32.6928 -175.233 -6.04348 178.218
lowerback 4.741 -0.831096 -3.79627
upperback -3.04629 -1.33872 1.81504
thorax -5.70811 -0.49339 4.15898
lowerneck -19.4322 -0.11969 -1.84642
upperneck 26.3816 -0.11854 -1.16631
head 11.8867 -0.745577 -0.215087
rclavicle -3.29237e-015 -2.22639e-014
rhumerus -35.1049 -11.1472 -77.0101
rradius 30.7726
rwrist 1.76139
rhand -20.1266 -12.2192
rfingers 7.12502
rthumb 6.21764 -42.1079
lclavicle -3.29237e-015 -2.22639e-014
lhumerus -35.8163 5.28039 84.1464
lradius 32.5628
lwrist -14.4198
lhand -8.80347 9.34845
lfingers 7.12502
lthumb 17.1356 38.6128
rfemur -30.7758 -2.74974 15.2303
rtibia 35.5768
rfoot -5.75655 -5.95488
rtoes 11.8135
lfemur -10.5903 -4.76823 -25.5711
ltibia 31.9932
lfoot -22.5618 -0.936953
ltoes 9.28733
66
root 0.597597 17.1608 32.6904 -175.226 -6.02255 178.235
lowerback 4.75477 -0.834066 -3.79549
upperback -3.06193 -1.34359 1.81981
thorax -5.73198 -0.495051 4.16474
lowerneck -19.3958 -0.116105 -1.85164
upperneck 26.3791 -0.115484 -1.16628
head 11.8784 -0.745687 -0.213722
rclavicle 1.24303e-014 -2.22639e-014
rhumerus -35.1445 -11.1308 -77.0183
rradius 30.7743
rwrist 1.75713
rhand -20.1219 -12.2199
rfingers 7.12502
rthumb 6.2221 -42.1085
lclavicle 1.24303e-014 -2.22639e-014
lhumerus -35.8736 5.25928 84.1588
lradius 32.5873
lwrist -14.4032
lhand -8.80618 9.35148
lfingers 7.12502
lthumb 17.133 38.6161
rfemur -30.7846 -2.73531 15.2466
rtibia 35.5817
rfoot -5.76413 -5.94798
rtoes 11.8059
lfemur -10.5929 -4.77103 -25.5597
ltibia 31.9986
lfoot -22.5767 -0.909143
ltoes 9.27971
67
root 0.596171 17.1605 32.6881 -175.217 -6.00352 178.251
lowerback 4.76749 -0.837455 -3.79601
upperback -3.07488 -1.34893 1.82485
thorax -5.75232 -0.496998 4.17148
lowerneck -19.3664 -0.113153 -1.85667
upperneck 26.3769 -0.112355 -1.16753
head 11.8716 -0.745755 -0.212857
rclavicle 3.11098e-014 -1.03368e-014
rhumerus -35.1798 -11.1114 -77.0286
rradius 30.7769
rwrist 1.74708
rhand -20.1195 -12.223
rfingers 7.12502
rthumb 6.22448 -42.1116
lclavicle 3.11098e-014 -1.03368e-014
lhumerus -35.9284 5.23262 84.1745
lradius 32.6167
lwrist -14.3796
lhand -8.80691 9.36423
lfingers 7.12502
lthumb 17.1323 38.6289
rfemur -30.7946 -2.7236 15.2624
rtibia 35.5874
rfoot -5.77302 -5.94074
rtoes 11.8017
lfemur -10.5972 -4.77577 -25.5488
ltibia 32.0056
lfoot -22.5923 -0.881527
ltoes 9.27742
68
root 0.594846 17.16 32.6858 -175.208 -5.98494 178.267
lowerback 4.7815 -0.840289 -3.7973
upperback -3.08673 -1.35357 1.83008
thorax -5.77229 -0.498564 4.1788
lowerneck -19.3415 -0.111336 -1.86105
upperneck 26.3755 -0.110569 -1.16936
head 11.8661 -0.746366 -0.212543
rclavicle 1.42007e-014 -2.34566e-014
rhumerus -35.214 -11.0928 -77.0388
rradius 30.7797
rwrist 1.73569
rhand -20.1179 -12.2229
rfingers 7.12502
rthumb 6.22595 -42.1114
lclavicle 1.42007e-014 -2.34566e-014
lhumerus -35.9766 5.21499 84.1876
lradius 32.6394
lwrist -14.3631
lhand -8.8064 9.37569
lfingers 7.12502
lthumb 17.1328 38.6403
rfemur -30.8059 -2.71452 15.2793
rtibia 35.5947
rfoot -5.78348 -5.93162
rtoes 11.7963
lfemur -10.6034 -4.78119 -25.5374
ltibia 32.0142
lfoot -22.6083 -0.853766
ltoes 9.2748
69
root 0.593613 17.1594 32.6834 -175.198 -5.96838 178.281
lowerback 4.79241 -0.843231 -3.80029
upperback -3.0951 -1.35826 1.8343
thorax -5.78679 -0.500262 4.18587
lowerneck -19.3242 -0.111171 -1.86382
upperneck 26.3741 -0.110536 -1.1724
head 11.8621 -0.747545 -0.213219
rclavicle -1.25607e-014 -1.43125e-014
rhumerus -35.2439 -11.0776 -77.0499
rradius 30.7831
rwrist 1.72524
rhand -20.1193 -12.224
rfingers 7.12502
rthumb 6.22464 -42.1125
lclavicle -1.25607e-014 -1.43125e-014
lhumerus -36.0138 5.20421 84.1981
lradius 32.6552
lwrist -14.3507
lhand -8.80552 9.38724
lfingers 7.12502
lthumb 17.1336 38.6518
rfemur -30.8191 -2.70829 15.2946
rtibia 35.6042
rfoot -5.79565 -5.9224
rtoes 11.7942
lfemur -10.6116 -4.78627 -25.5272
ltibia 32.0239
lfoot -22.6251 -0.82892
ltoes 9.27785
